<?xml version="1.0" encoding="UTF-8"?>
<svg version="1.1" xmlns="http://www.w3.org/2000/svg" width="1024" height="1024" shape-rendering="geometricPrecision">
<defs>
  <filter id="smooth">
    <feGaussianBlur in="SourceGraphic" stdDeviation="0.5"/>
  </filter>
</defs>
<path d="M0 0 C0.96099609 0.05220703 1.92199219 0.10441406 2.91210938 0.15820312 C5.25435793 0.28638588 7.59600875 0.42126109 9.9375 0.5625 C9.9375 1.2225 9.9375 1.8825 9.9375 2.5625 C11.113125 2.68625 12.28875 2.81 13.5 2.9375 C19.63092318 3.69843018 25.77008946 5.11755964 30.9375 8.5625 C32.54633356 9.40404371 34.15589291 10.24427039 35.77124023 11.07324219 C55.94514591 21.48790212 74.00923795 35.52892297 90.9375 50.5625 C91.88496094 51.3978125 92.83242188 52.233125 93.80859375 53.09375 C106.1729649 64.20625001 118.64929676 75.81202344 128.890625 88.94140625 C131.40473023 92.16080436 134.03899016 95.2659946 136.6875 98.375 C138.4394168 100.4358935 140.18897996 102.4987165 141.9375 104.5625 C142.60434814 105.34657227 142.60434814 105.34657227 143.28466797 106.14648438 C145.54238091 108.82192025 147.66893233 111.49330769 149.5625 114.4375 C151.45212741 117.32978685 153.36840418 120.19705818 155.34375 123.03125 C164.38436286 136.00753967 173.0975793 149.25027743 180.8515625 163.04296875 C181.20992187 163.54441406 181.56828125 164.04585937 181.9375 164.5625 C182.5975 164.5625 183.2575 164.5625 183.9375 164.5625 C184.32228516 166.32013672 184.32228516 166.32013672 184.71484375 168.11328125 C185.76454399 172.29830662 187.46777483 175.95942376 189.5 179.75 C216.12764641 231.48230935 228.13735054 290.39097392 210.62890625 346.87109375 C203.07045113 370.07639778 190.79928936 391.22076892 176.15234375 410.62109375 C174.69171937 412.56086475 173.28442072 414.54211892 171.9375 416.5625 C172.43862305 416.78276855 172.93974609 417.00303711 173.45605469 417.22998047 C184.24251937 421.98727612 194.89479862 426.93272135 205.39941406 432.28662109 C209.19430923 434.21679673 212.93701462 436.08353268 216.9375 437.5625 C216.9375 438.2225 216.9375 438.8825 216.9375 439.5625 C217.64261719 439.82417969 218.34773437 440.08585937 219.07421875 440.35546875 C224.30772986 442.56168285 229.07310554 445.6489304 233.9375 448.5625 C234.700625 449.01109375 235.46375 449.4596875 236.25 449.921875 C240.23268043 452.31770619 243.76504605 454.94911565 247.23046875 458.046875 C248.33203698 459.02492643 249.45879103 459.9756444 250.61328125 460.890625 C269.05690656 475.64552525 277.97510789 498.5365197 284.31103516 520.5378418 C284.88969232 522.60258875 284.88969232 522.60258875 285.9375 524.5625 C286.75718322 528.5342378 287.32007024 532.5551817 287.9375 536.5625 C288.05915527 537.3369043 288.18081055 538.11130859 288.30615234 538.90917969 C293.87514057 574.6198843 293.87514057 574.6198843 288.9375 583.5625 C288.38449219 584.58537109 288.38449219 584.58537109 287.8203125 585.62890625 C277.70604204 601.39878948 252.36819636 605.31117596 235.42626953 609.03076172 C230.52132402 610.0787283 225.60503105 611.05778378 220.67578125 611.984375 C217.99005757 612.43088662 217.99005757 612.43088662 215.9375 613.5625 C214.38933088 613.7411349 212.83577773 613.8740047 211.28125 613.984375 C206.08889784 614.41819199 200.9657753 615.10487872 195.81291199 615.87063599 C152.72879369 622.26372384 109.29790422 625.60529761 65.81689453 627.82617188 C64.99995621 627.86881165 64.18301788 627.91145142 63.34132385 627.9553833 C61.8186439 628.03428687 60.29581164 628.11033133 58.77281189 628.18280029 C55.94030566 628.32985869 53.19902383 628.5096167 50.41572571 629.07243347 C45.44418396 629.77290159 40.53053398 629.69283548 35.51611328 629.67602539 C34.37406937 629.67617142 33.23202545 629.67631744 32.05537415 629.6764679 C28.28950078 629.67577256 24.5236772 629.66799784 20.7578125 629.66015625 C18.14321927 629.65829073 15.52862569 629.65686746 12.91403198 629.65586853 C6.74122016 629.65276557 0.56842613 629.64456618 -5.60437787 629.63451904 C-12.63461051 629.62332571 -19.66484403 629.61783935 -26.69508338 629.61282361 C-41.15089808 629.60238267 -55.60669879 629.58480333 -70.0625 629.5625 C-70.0625 628.9025 -70.0625 628.2425 -70.0625 627.5625 C-70.93850105 627.57575569 -70.93850105 627.57575569 -71.8321991 627.58927917 C-88.42129083 627.80352703 -104.83364859 627.09120779 -121.375 625.875 C-123.2244371 625.74203522 -123.2244371 625.74203522 -125.11123657 625.60638428 C-274.35040963 614.80170569 -274.35040963 614.80170569 -300.375 587.25 C-305.63137536 580.61314305 -306.55727182 573.47107958 -305.875 565.25 C-305.81965088 564.4240332 -305.76430176 563.59806641 -305.70727539 562.74707031 C-305.292843 557.10902861 -304.52607444 551.58705556 -303.47265625 546.03125 C-302.9380793 542.81360591 -302.9146851 539.81442773 -303.0625 536.5625 C-302.4025 536.5625 -301.7425 536.5625 -301.0625 536.5625 C-300.95035156 535.29277344 -300.83820313 534.02304687 -300.72265625 532.71484375 C-297.45306118 503.59554576 -282.80867159 475.04816576 -260.0625 456.5625 C-256.81666484 454.08318943 -253.48366266 451.79259122 -250.0625 449.5625 C-249.20269531 448.9953125 -248.34289062 448.428125 -247.45703125 447.84375 C-239.68422625 442.89265154 -231.59964662 438.51124498 -223.5 434.125 C-221.7675 433.18321899 -221.7675 433.18321899 -220 432.22241211 C-218.90558594 431.63468018 -217.81117188 431.04694824 -216.68359375 430.44140625 C-215.6980249 429.9110376 -214.71245605 429.38066895 -213.69702148 428.83422852 C-211.0625 427.5625 -211.0625 427.5625 -208.77368164 427.00756836 C-208.2089917 426.8606958 -207.64430176 426.71382324 -207.0625 426.5625 C-206.7325 425.9025 -206.4025 425.2425 -206.0625 424.5625 C-203.91796875 423.5625 -203.91796875 423.5625 -201.25 422.5625 C-198.73246173 421.61052098 -196.30823096 420.69187937 -193.92578125 419.4375 C-192.0625 418.5625 -192.0625 418.5625 -189.0625 418.5625 C-189.0625 417.5725 -189.0625 416.5825 -189.0625 415.5625 C-188.0725 415.5625 -187.0825 415.5625 -186.0625 415.5625 C-186.65675781 414.83289063 -187.25101562 414.10328125 -187.86328125 413.3515625 C-197.38684231 401.44176305 -205.07909179 388.49806323 -212.25 375.0625 C-212.63679932 374.33836914 -213.02359863 373.61423828 -213.42211914 372.86816406 C-216.0625 367.81763625 -216.0625 367.81763625 -216.0625 365.5625 C-217.0525 365.5625 -218.0425 365.5625 -219.0625 365.5625 C-218.7325 364.5725 -218.4025 363.5825 -218.0625 362.5625 C-219.02704652 359.71678822 -220.06518036 356.9701686 -221.1875 354.1875 C-241.48861543 301.43508967 -231.73419447 244.3434971 -209.625 193.8125 C-207.79802046 189.71642049 -205.94167581 185.63487834 -204.0625 181.5625 C-203.71074707 180.79953613 -203.35899414 180.03657227 -202.99658203 179.25048828 C-198.40500297 169.41672043 -192.9687415 160.12263109 -187.36572266 150.83325195 C-186.82351074 149.9330835 -186.28129883 149.03291504 -185.72265625 148.10546875 C-185.23418213 147.30133545 -184.74570801 146.49720215 -184.24243164 145.66870117 C-182.93214622 143.48440892 -182.93214622 143.48440892 -182.0625 140.5625 C-180.73855297 138.88836744 -179.40271235 137.2236401 -178.0625 135.5625 C-175.99980901 132.61169572 -174.00717729 129.6137548 -172 126.625 C-166.35891435 118.30511534 -160.40430553 110.35607425 -154.0625 102.5625 C-153.32773437 101.64597656 -152.59296875 100.72945313 -151.8359375 99.78515625 C-146.91534019 93.69256213 -141.8146181 87.76377434 -136.66650391 81.86352539 C-134.18521736 79.01954233 -131.72705726 76.16650475 -129.3359375 73.24609375 C-127.10288402 70.61016979 -124.76375741 68.69507164 -122.0625 66.5625 C-121.32 65.5725 -121.32 65.5725 -120.5625 64.5625 C-119.0625 62.5625 -119.0625 62.5625 -116.7578125 60.73046875 C-114.10019419 58.59281924 -111.80156348 56.329989 -109.4375 53.875 C-104.28298751 48.67487236 -98.80417157 44.09539861 -93.0625 39.5625 C-91.96806985 38.67792418 -90.87434547 37.7924746 -89.78125 36.90625 C-63.87722643 16.04444388 -34.38184359 -2.08157299 0 0 Z " fill="#667eea" transform="translate(519.0625,194.4375)"/>
<path d="M0 0 C1.36227722 0.00081573 1.36227722 0.00081573 2.7520752 0.00164795 C16.89722598 0.04057499 30.36764395 0.84912408 44.125 4.375 C44.99882324 4.58930664 45.87264648 4.80361328 46.77294922 5.02441406 C72.75844933 11.50075673 95.63606469 22.06178445 116.125 39.375 C117.49785156 40.51775391 117.49785156 40.51775391 118.8984375 41.68359375 C145.26461312 64.43963147 162.61586511 101.166482 165.96166992 135.73095703 C167.05425555 153.41810553 167.52049663 172.12490179 163.125 189.375 C162.94227539 190.13393555 162.75955078 190.89287109 162.57128906 191.67480469 C157.94852628 210.41635036 149.80080064 228.93919577 138.125 244.375 C137.72877441 244.91350586 137.33254883 245.45201172 136.92431641 246.00683594 C121.97660102 266.27550457 101.61519397 285.43684101 78.125 295.375 C77.465 295.045 76.805 294.715 76.125 294.375 C77.28515625 293.52228516 77.28515625 293.52228516 78.46875 292.65234375 C88.75959569 285.02336285 97.22447396 277.53088989 105.125 267.375 C105.86878906 266.446875 106.61257813 265.51875 107.37890625 264.5625 C133.15122881 231.57392712 146.15628165 186.79159544 141.4375 145.1875 C137.52276441 117.75716522 121.89632217 95.42939442 100.13989258 78.98583984 C77.66031545 62.42537377 52.47369771 53.04127855 25.125 48.375 C24.06023437 48.18035156 22.99546875 47.98570312 21.8984375 47.78515625 C-17.95599727 43.45315247 -61.30702416 53.41759235 -93.11816406 78.46142578 C-94.71612381 79.75178559 -96.29884774 81.0581091 -97.875 82.375 C-98.38804687 82.80151855 -98.90109375 83.22803711 -99.4296875 83.66748047 C-119.36736651 100.47408362 -133.1430958 123.13790025 -135.875 149.375 C-136.74037063 166.78261336 -135.73455273 183.38347171 -131.875 200.375 C-131.71483398 201.09461914 -131.55466797 201.81423828 -131.38964844 202.55566406 C-125.54278032 228.1651947 -113.29896718 253.66217014 -95.875 273.375 C-95.44429199 273.87660645 -95.01358398 274.37821289 -94.56982422 274.89501953 C-89.23953302 281.10120723 -83.92622699 286.53387629 -76.96875 290.97265625 C-75.00726938 292.28640913 -73.47395458 293.64792406 -71.875 295.375 C-87.96411864 292.50334802 -103.4970363 276.23649492 -114.875 265.375 C-115.73996094 264.56289063 -116.60492188 263.75078125 -117.49609375 262.9140625 C-146.06337626 235.37181508 -160.07928434 196.6872346 -161.15820312 157.4987793 C-161.69062439 114.35934611 -144.29234351 75.28125814 -114.875 44.375 C-114.28203125 43.72917969 -113.6890625 43.08335937 -113.078125 42.41796875 C-94.29432881 22.56479803 -67.39509391 10.46788407 -41.25 4.1875 C-40.28441162 3.9551062 -40.28441162 3.9551062 -39.29931641 3.71801758 C-37.16424315 3.23031184 -35.0245563 2.79444743 -32.875 2.375 C-31.97797363 2.19549805 -31.08094727 2.01599609 -30.15673828 1.83105469 C-20.12255078 0.0427203 -10.15919652 -0.02285715 0 0 Z " fill="#FFFFFF" transform="translate(508.875,346.625)"/>
<path d="M0 0 C3.81628832 1.54572776 5.97025743 3.88771245 8.6875 6.9375 C9.12175293 7.42404053 9.55600586 7.91058105 10.00341797 8.41186523 C16.75183584 16.03171883 23.053489 24.02713258 29.37109375 32.00390625 C30.99441475 34.0615997 30.99441475 34.0615997 33 36 C33.83501822 37.19288317 34.64344589 38.40446579 35.4375 39.625 C37.39628703 42.60349457 39.37981169 45.55982161 41.41796875 48.484375 C50.45323421 61.45655354 59.16321991 74.69336391 66.9140625 88.48046875 C67.27242187 88.98191406 67.63078125 89.48335938 68 90 C68.66 90 69.32 90 70 90 C70.25523437 91.16789062 70.51046875 92.33578125 70.7734375 93.5390625 C71.85123309 97.83703195 73.55038439 101.48007973 75.625 105.375 C78.73263813 111.41449504 81.69799469 117.49979103 84.5 123.6875 C85.0252124 124.81841064 85.0252124 124.81841064 85.56103516 125.97216797 C87.26910671 129.78287817 88.4718708 132.72788401 88 137 C84.78977978 133.30041695 83.29024207 129.11299916 81.5 124.625 C64.51051747 83.35398281 38.53724799 46.37361364 9.6875 12.5625 C8.93182739 11.67522217 8.93182739 11.67522217 8.16088867 10.77001953 C6.05611463 8.31685213 3.96718462 5.96816419 1.64453125 3.71484375 C0 2 0 2 0 0 Z " fill="#1F2223" transform="translate(633,269)"/>
<path d="M0 0 C43.89 0 87.78 0 133 0 C128.88253555 4.11746445 122.32702653 3.11680599 116.82850647 3.12442017 C115.75604172 3.12082489 114.68357697 3.11722961 113.57861328 3.11352539 C112.43656937 3.11367142 111.29452545 3.11381744 110.11787415 3.1139679 C106.35200078 3.11327256 102.5861772 3.10549784 98.8203125 3.09765625 C96.20571927 3.09579073 93.59112569 3.09436746 90.97653198 3.09336853 C84.80372016 3.09026557 78.63092613 3.08206618 72.45812213 3.07201904 C65.42788949 3.06082571 58.39765597 3.05533935 51.36741662 3.05032361 C36.91160192 3.03988267 22.45580121 3.02230333 8 3 C8 2.34 8 1.68 8 1 C5.36 1 2.72 1 0 1 C0 0.67 0 0.34 0 0 Z " fill="#323536" transform="translate(441,821)"/>
<path d="M0 0 C0.99 0.33 1.98 0.66 3 1 C2.50185791 1.73935791 2.00371582 2.47871582 1.49047852 3.24047852 C-10.42500337 20.95044725 -21.81365423 38.61356724 -31.6875 57.5625 C-32.00633148 58.17220642 -32.32516296 58.78191284 -32.65365601 59.41009521 C-38.85648629 71.3076194 -44.1055016 83.5046335 -49 96 C-50.32382897 92.36645589 -49.67381838 90.42744532 -48.19140625 86.921875 C-47.77858398 85.93453369 -47.36576172 84.94719238 -46.94042969 83.92993164 C-46.48571289 82.8805542 -46.03099609 81.83117676 -45.5625 80.75 C-45.09875977 79.66388428 -44.63501953 78.57776855 -44.15722656 77.45874023 C-36.9891702 60.83481874 -28.32286869 45.23124287 -19.38525391 29.49511719 C-18.52805309 27.95112841 -17.70047858 26.38976073 -16.92236328 24.80444336 C-15.62064363 22.25785524 -13.78760367 20.23450458 -12 18 C-9.86738615 14.92843167 -7.80933444 11.80852481 -5.75 8.6875 C-5.19570313 7.85154297 -4.64140625 7.01558594 -4.0703125 6.15429688 C-2.71142566 4.10425208 -1.3547247 2.05279662 0 0 Z " fill="#1C1F20" transform="translate(353,312)"/>
<path d="M0 0 C5.45622225 0.50834369 9.16318885 2.47168767 13.75 5.25 C14.84948975 5.90730103 14.84948975 5.90730103 15.97119141 6.57788086 C31.66160024 16.13688391 46.11817423 27.52880177 59.67578125 39.89453125 C61.71273925 41.73977555 63.78270847 43.5308167 65.875 45.3125 C71.54039041 50.23183077 76.7373888 55.65844963 82 61 C81.67 61.99 81.34 62.98 81 64 C80.42145264 63.410979 79.84290527 62.82195801 79.24682617 62.21508789 C77.04619067 59.97985878 74.84069888 57.74955588 72.63208008 55.5222168 C71.22827838 54.10370567 69.82987502 52.67985854 68.43164062 51.25585938 C63.0384518 45.82455614 57.50794123 40.77614833 51.51953125 36.00708008 C48.9082921 33.92694471 46.35906971 31.78358395 43.8125 29.625 C34.23451224 21.80206966 23.835289 15.07319244 13.375 8.5 C12.72442627 8.09080322 12.07385254 7.68160645 11.40356445 7.26000977 C7.69267288 4.95811014 3.94221845 2.89226485 0 1 C0 0.67 0 0.34 0 0 Z " fill="#202324" transform="translate(550,205)"/>
<path d="M0 0 C1.32 0.66 2.64 1.32 4 2 C2.86046875 2.59425781 1.7209375 3.18851563 0.546875 3.80078125 C-4.64530755 6.51524209 -9.82379417 9.25522336 -15 12 C-15.87027832 12.45938965 -16.74055664 12.9187793 -17.63720703 13.39208984 C-28.67596813 19.23981881 -39.10235882 25.36538733 -49 33 C-49.98484375 33.75023437 -50.9696875 34.50046875 -51.984375 35.2734375 C-58.35439198 40.28850611 -63.76920511 45.81345494 -69 52 C-69.495 50.515 -69.495 50.515 -70 49 C-61.89136876 39.50218054 -53.3863744 31.92804787 -43 25 C-42.03320312 24.3503125 -41.06640625 23.700625 -40.0703125 23.03125 C-32.4262138 18.14234134 -24.40991484 13.88565153 -16.4375 9.5625 C-15.28209717 8.93432373 -14.12669434 8.30614746 -12.9362793 7.65893555 C-11.84226807 7.07152588 -10.74825684 6.48411621 -9.62109375 5.87890625 C-8.6355249 5.3485376 -7.64995605 4.81816895 -6.63452148 4.27172852 C-4.38319057 3.18497263 -2.44070664 2.47382888 0 2 C0 1.34 0 0.68 0 0 Z " fill="#232628" transform="translate(312,619)"/>
<path d="M0 0 C0.99 0.33 1.98 0.66 3 1 C2.27296875 1.47308594 1.5459375 1.94617188 0.796875 2.43359375 C-12.93510139 11.46500899 -25.81266816 21.5276043 -38.3125 32.1875 C-38.89950684 32.68677002 -39.48651367 33.18604004 -40.09130859 33.70043945 C-42.77960205 36.00825607 -45.31440575 38.32232086 -47.79296875 40.86328125 C-50 43 -50 43 -52 43 C-52.37318359 43.87785156 -52.37318359 43.87785156 -52.75390625 44.7734375 C-54.17441856 47.31165699 -55.7220453 48.75197126 -57.9375 50.625 C-58.62714844 51.21539062 -59.31679688 51.80578125 -60.02734375 52.4140625 C-62 54 -62 54 -65 56 C-65 54.68 -65 53.36 -65 52 C-63.36935236 50.94228261 -61.69719127 49.94726954 -60 49 C-58.97971135 47.68212715 -57.98028616 46.34789347 -57 45 C-56.23945313 44.39414062 -55.47890625 43.78828125 -54.6953125 43.1640625 C-52.03583562 41.02877237 -49.73902152 38.76744542 -47.375 36.3125 C-42.22048751 31.11237236 -36.74167157 26.53289861 -31 22 C-29.90556985 21.11542418 -28.81184547 20.2299746 -27.71875 19.34375 C-9.73551758 4.86775879 -9.73551758 4.86775879 0 0 Z " fill="#212425" transform="translate(457,212)"/>
<path d="M0 0 C2.91597955 2.91597955 3.93834761 6.6016589 5.4375 10.375 C12.2260577 26.88625988 21.04893173 41.80912566 31.63964844 56.15087891 C33.79254966 59.07730997 35.89380311 62.03983601 38 65 C37.01 65 36.02 65 35 65 C24.06908154 53.4572764 16.24335473 38.42260445 8.8125 24.5 C8.42570068 23.77586914 8.03890137 23.05173828 7.64038086 22.30566406 C5 17.25513625 5 17.25513625 5 15 C4.01 15 3.02 15 2 15 C2.33 14.01 2.66 13.02 3 12 C2.00522247 9.66443537 1.00484883 7.33124929 0 5 C-0.1875 2.0625 -0.1875 2.0625 0 0 Z " fill="#222526" transform="translate(298,545)"/>
<path d="M0 0 C0.95777344 0.00902344 1.91554688 0.01804687 2.90234375 0.02734375 C3.61519531 0.03894531 4.32804688 0.05054688 5.0625 0.0625 C4.7325 0.7225 4.4025 1.3825 4.0625 2.0625 C2.17431641 2.49282837 2.17431641 2.49282837 -0.3359375 2.74853516 C-1.27622803 2.84848785 -2.21651855 2.94844055 -3.18530273 3.05142212 C-4.73326538 3.19999161 -4.73326538 3.19999161 -6.3125 3.3515625 C-7.3837915 3.45971283 -8.45508301 3.56786316 -9.55883789 3.67929077 C-11.84848979 3.90748159 -14.13863561 4.1307596 -16.42919922 4.34960938 C-19.84131277 4.67823604 -23.2505489 5.0292531 -26.66015625 5.3828125 C-41.79043279 6.89237369 -56.73699667 7.3694428 -71.9375 7.0625 C-71.9375 6.7325 -71.9375 6.4025 -71.9375 6.0625 C-70.85208168 5.97187035 -70.85208168 5.97187035 -69.74473572 5.87940979 C-62.90373511 5.30783662 -56.06290267 4.73428761 -49.22225094 4.15855503 C-45.7059552 3.8626808 -42.1896002 3.56755342 -38.6730957 3.27416992 C-34.62431956 2.93634505 -30.57582853 2.59520526 -26.52734375 2.25390625 C-25.27291977 2.14969864 -24.01849579 2.04549103 -22.72605896 1.93812561 C-15.1687608 1.29787327 -7.57858481 -0.09356278 0 0 Z " fill="#232628" transform="translate(683.9375,811.9375)"/>
<path d="M0 0 C0.66 0 1.32 0 2 0 C5.83347642 10.74436867 9.34472159 21.50813738 11.9375 32.625 C12.14850342 33.49914551 12.35950684 34.37329102 12.5769043 35.27392578 C13.98344255 41.57440555 14.22883823 47.5570867 14 54 C13.67 54 13.34 54 13 54 C12.88519287 53.36835938 12.77038574 52.73671875 12.65209961 52.0859375 C9.84906961 36.88083488 6.28718371 22.13318558 1.67675781 7.37402344 C0.98071879 4.93236272 0.46484624 2.49508159 0 0 Z " fill="#1E2021" transform="translate(721,407)"/>
<path d="M0 0 C0.66 0.33 1.32 0.66 2 1 C2.51481193 3.9804901 2.8997187 6.87057453 3.1875 9.875 C3.27064453 10.74181396 3.35378906 11.60862793 3.43945312 12.50170898 C4.34055724 22.79990416 4.19635103 30.09129421 -1.33203125 39.1015625 C-3.19835611 41.22576363 -4.23797961 41.65250069 -7 42 C-6.36771484 41.07767578 -6.36771484 41.07767578 -5.72265625 40.13671875 C-5.17480469 39.32847656 -4.62695312 38.52023437 -4.0625 37.6875 C-3.51722656 36.88699219 -2.97195313 36.08648438 -2.41015625 35.26171875 C0.14411229 31.16498334 0.11763269 27.87894729 0.09765625 23.14453125 C0.0962413 22.48289474 0.09482635 21.82125824 0.09336853 21.13957214 C0.08777996 19.03050172 0.07522965 16.92153823 0.0625 14.8125 C0.05748352 13.38086091 0.05292087 11.94922015 0.04882812 10.51757812 C0.0378143 7.01168412 0.02055755 3.5058525 0 0 Z " fill="#242728" transform="translate(807,743)"/>
<path d="M0 0 C0.33 0 0.66 0 1 0 C1 15.51 1 31.02 1 47 C0.34 46.67 -0.32 46.34 -1 46 C-2.64886347 38.60234292 -2.18312943 30.53486617 -2.1875 23 C-2.19974609 21.88882812 -2.21199219 20.77765625 -2.22460938 19.6328125 C-2.23659009 12.84373883 -1.64166443 6.59270112 0 0 Z " fill="#2A2C2D" transform="translate(289,465)"/>
<path d="M0 0 C0.99 0.495 0.99 0.495 2 1 C3.48065935 9.40902765 3.12082892 18.35606832 3.1875 26.875 C3.20707764 28.33607178 3.20707764 28.33607178 3.22705078 29.82666016 C3.23393747 35.57507472 2.6483923 40.48798464 1 46 C0.67 46 0.34 46 0 46 C0 30.82 0 15.64 0 0 Z " fill="#252829" transform="translate(735,462)"/>
<path d="M0 0 C13.53 0 27.06 0 41 0 C37.7643643 3.2356357 34.04732572 2.98346924 29.61254883 3.0534668 C22.73363452 2.85729393 22.73363452 2.85729393 19.89477539 2.75805664 C17.8082811 2.68735705 15.72177147 2.63325181 13.63476562 2.58007812 C12.31798828 2.53689453 11.00121094 2.49371094 9.64453125 2.44921875 C8.44159424 2.41143311 7.23865723 2.37364746 5.99926758 2.3347168 C3 2 3 2 0 0 Z " fill="#242729" transform="translate(533,821)"/>
<path d="M0 0 C15.51 0 31.02 0 47 0 C47 0.33 47 0.66 47 1 C42.93818315 1.34200944 38.87546604 1.67194819 34.8125 2 C33.68134766 2.09539063 32.55019531 2.19078125 31.38476562 2.2890625 C23.57222697 2.91228496 15.8360839 3.11682328 8 3 C8 2.34 8 1.68 8 1 C5.36 1 2.72 1 0 1 C0 0.67 0 0.34 0 0 Z " fill="#232628" transform="translate(441,821)"/>
<path d="M0 0 C0.66 0 1.32 0 2 0 C0.54866347 5.12329728 -1.72530373 9.18253378 -4.5625 13.625 C-5.00287598 14.31996582 -5.44325195 15.01493164 -5.89697266 15.73095703 C-17.52356864 33.86345503 -17.52356864 33.86345503 -23 36 C-23 35.34 -23 34.68 -23 34 C-22.33226562 33.36964844 -21.66453125 32.73929688 -20.9765625 32.08984375 C-16.61885033 27.89949966 -13.62149806 22.61930118 -10.375 17.5625 C-9.70726562 16.53833984 -9.03953125 15.51417969 -8.3515625 14.45898438 C-5.2924857 9.73271072 -2.45593617 5.07345935 0 0 Z " fill="#1D2022" transform="translate(712,574)"/>
<path d="M0 0 C2.23489174 3.35233761 2.24725489 4.45371229 2.23046875 8.3671875 C2.22853516 9.41777344 2.22660156 10.46835937 2.22460938 11.55078125 C2.21236328 12.64777344 2.20011719 13.74476563 2.1875 14.875 C2.18685547 15.96425781 2.18621094 17.05351562 2.18554688 18.17578125 C2.1593281 22.93594617 2.061394 27.34257137 1 32 C0.67 32 0.34 32 0 32 C-0.94296522 26.43949875 -1.15155539 21.07166816 -1.125 15.4375 C-1.12886719 14.61314453 -1.13273437 13.78878906 -1.13671875 12.93945312 C-1.12964208 8.51299343 -0.88978707 4.35713193 0 0 Z " fill="#E3E3E3" transform="translate(349,486)"/>
<path d="M0 0 C0.33 0 0.66 0 1 0 C1 9.9 1 19.8 1 30 C0.01 29.67 -0.98 29.34 -2 29 C-3.65028285 24.71941479 -2.93721385 20.11300777 -2.6875 15.625 C-2.65205078 14.78710938 -2.61660156 13.94921875 -2.58007812 13.0859375 C-2.33304408 8.39597776 -1.76086847 4.412952 0 0 Z " fill="#202324" transform="translate(216,744)"/>
<path d="M0 0 C0.96099609 0.05220703 1.92199219 0.10441406 2.91210938 0.15820312 C5.25435793 0.28638588 7.59600875 0.42126109 9.9375 0.5625 C10.2675 1.5525 10.5975 2.5425 10.9375 3.5625 C0.3775 3.2325 -10.1825 2.9025 -21.0625 2.5625 C-20.7325 1.9025 -20.4025 1.2425 -20.0625 0.5625 C-13.29826322 -0.57738652 -6.82447981 -0.4131731 0 0 Z " fill="#1D2021" transform="translate(519.0625,194.4375)"/>
<path d="M0 0 C0.33 0 0.66 0 1 0 C0.54604388 6.84916247 -1.51330754 12.08128101 -4.4375 18.25 C-4.84548828 19.13429688 -5.25347656 20.01859375 -5.67382812 20.9296875 C-7.39541197 24.64808393 -9.15541341 28.34095525 -11 32 C-11.66 32 -12.32 32 -13 32 C-11.24830839 26.29748221 -8.87335402 20.9007638 -6.5 15.4375 C-5.69738756 13.58226006 -4.89528743 11.72679839 -4.09375 9.87109375 C-3.56297852 8.64797485 -3.56297852 8.64797485 -3.02148438 7.40014648 C-1.97753222 4.94720823 -0.98119885 2.47862958 0 0 Z " fill="#1F2223" transform="translate(727,541)"/>
<path d="M0 0 C0.66 0.33 1.32 0.66 2 1 C1.52949219 1.43570312 1.05898438 1.87140625 0.57421875 2.3203125 C-2.35720489 5.12428294 -4.70016616 7.38783925 -6.5 11.0625 C-8.25895774 14.50712557 -10.30821886 16.15572552 -13.28125 18.54296875 C-15.52905226 20.44849203 -17.25916121 22.63245925 -19 25 C-18.44126719 20.81458328 -15.97042368 17.96543963 -13.4375 14.75 C-12.99293457 14.17805908 -12.54836914 13.60611816 -12.09033203 13.0168457 C-8.39033735 8.33207914 -4.38549356 4.05474404 0 0 Z " fill="#1A1D1E" transform="translate(406,432)"/>
<path d="M0 0 C6.71635455 2.47444641 9.47290214 10.76326488 12.33984375 16.83984375 C14.14597724 21.11414542 15.20674405 24.31104505 15 29 C12.66806668 26.66806668 12.05039487 24.82410967 10.875 21.75 C8.30742309 15.38888603 5.0558598 9.62514624 1.57421875 3.73828125 C0 1 0 1 0 0 Z " fill="#1F2222" transform="translate(782,672)"/>
<path d="M0 0 C-2.94665542 2.94665542 -6.2215006 2.51146027 -10.1875 2.6875 C-10.98526855 2.7280249 -11.78303711 2.7685498 -12.60498047 2.81030273 C-20.12973933 3.12750394 -27.50689301 2.71836571 -35 2 C-35 1.67 -35 1.34 -35 1 C-23.371343 -0.40044041 -11.69063004 -0.09657994 0 0 Z " fill="#1E2022" transform="translate(611,819)"/>
<path d="M0 0 C0.25515919 7.52719602 -0.71702277 14.58851545 -2 22 C-2.99 21.67 -3.98 21.34 -5 21 C-4.72350393 17.68604792 -4.42627566 14.37428395 -4.125 11.0625 C-4.00705078 9.64420898 -4.00705078 9.64420898 -3.88671875 8.19726562 C-3.80292969 7.29814453 -3.71914063 6.39902344 -3.6328125 5.47265625 C-3.55949707 4.64000244 -3.48618164 3.80734863 -3.41064453 2.94946289 C-3.20737549 1.98447876 -3.20737549 1.98447876 -3 1 C-1 0 -1 0 0 0 Z " fill="#E5E5E5" transform="translate(654,517)"/>
<path d="M0 0 C5.80954742 0.46180822 9.82699609 2.91424438 14.6875 5.875 C15.44611328 6.32230469 16.20472656 6.76960937 16.98632812 7.23046875 C20.36597375 9.25288687 23.29193791 11.11021338 26 14 C20.75789641 13.53652133 17.24026267 11.55059608 13 8.625 C8.77383781 5.76449721 4.63161502 3.18872051 0 1 C0 0.67 0 0.34 0 0 Z " fill="#232728" transform="translate(550,205)"/>
<path d="M0 0 C0.680625 0.70125 1.36125 1.4025 2.0625 2.125 C3.03673336 3.08834807 4.01633007 4.04628956 5 5 C5.50789062 5.49242187 6.01578125 5.98484375 6.5390625 6.4921875 C11.19439236 10.75038022 16.2788863 13.39844729 22 16 C22 16.33 22 16.66 22 17 C14.56601028 16.68366001 9.37943051 13.27555457 4.09375 8.15234375 C0 3.60480542 0 3.60480542 0 0 Z " fill="#1F2224" transform="translate(217,776)"/>
<path d="M0 0 C0.66 0.33 1.32 0.66 2 1 C1.39671875 1.97839844 0.7934375 2.95679688 0.171875 3.96484375 C-4.02131149 10.82284268 -7.98334048 17.52393076 -11 25 C-11.74984385 22.77017686 -12.13299032 21.43986418 -11.44262695 19.15649414 C-10.97022583 18.23018188 -10.97022583 18.23018188 -10.48828125 17.28515625 C-10.14216797 16.59873047 -9.79605469 15.91230469 -9.43945312 15.20507812 C-9.06755859 14.49802734 -8.69566406 13.79097656 -8.3125 13.0625 C-7.95994141 12.35931641 -7.60738281 11.65613281 -7.24414062 10.93164062 C-5.18630852 6.91755131 -2.97246511 3.42873515 0 0 Z " fill="#222626" transform="translate(240,672)"/>
<path d="M0 0 C-0.33 0.66 -0.66 1.32 -1 2 C-10.22348448 4.18770789 -19.57954527 4.25770241 -29 4 C-29 3.67 -29 3.34 -29 3 C-25.85591216 2.48860403 -22.70951427 1.99303964 -19.5625 1.5 C-18.68400391 1.35691406 -17.80550781 1.21382812 -16.90039062 1.06640625 C-11.19328375 0.18190998 -5.77505428 -0.14099827 0 0 Z " fill="#1E2022" transform="translate(719,808)"/>
<path d="M0 0 C5.91267797 0.48948582 10.22546968 2.30150681 15.4375 5.0625 C16.16904297 5.43955078 16.90058594 5.81660156 17.65429688 6.20507812 C19.44093953 7.12759296 21.22115829 8.0625312 23 9 C23 9.66 23 10.32 23 11 C19.52401836 10.42022443 16.70895302 9.53478895 13.57421875 7.93359375 C12.77822266 7.53076172 11.98222656 7.12792969 11.16210938 6.71289062 C10.34548828 6.29201172 9.52886719 5.87113281 8.6875 5.4375 C7.85154297 5.01275391 7.01558594 4.58800781 6.15429688 4.15039062 C4.10003574 3.1056521 2.04879708 2.05540238 0 1 C0 0.67 0 0.34 0 0 Z " fill="#25282A" transform="translate(702,618)"/>
<path d="M0 0 C5.17979885 0.50882111 8.9079708 3.14074876 13.1875 5.875 C13.91130859 6.32230469 14.63511719 6.76960937 15.38085938 7.23046875 C18.73526333 9.34608353 20.75538772 10.63308158 23 14 C18.98391122 13.34371232 16.03556623 11.3300352 12.625 9.1875 C11.52414062 8.50042969 10.42328125 7.81335938 9.2890625 7.10546875 C8.20367188 6.41066406 7.11828125 5.71585938 6 5 C5.42217773 4.63084473 4.84435547 4.26168945 4.24902344 3.88134766 C2.81403701 2.94898566 1.40432424 1.97793577 0 1 C0 0.67 0 0.34 0 0 Z " fill="#1F2325" transform="translate(738,636)"/>
<path d="M0 0 C0.66 0.33 1.32 0.66 2 1 C0.2719625 3.20922483 -1.45739512 5.41739506 -3.1875 7.625 C-3.67025391 8.24246094 -4.15300781 8.85992187 -4.65039062 9.49609375 C-7.70241642 13.38793873 -10.81542961 17.21577559 -14 21 C-14.33 20.34 -14.66 19.68 -15 19 C-10.30423743 12.36494847 -5.49625431 5.99435236 0 0 Z " fill="#1F2223" transform="translate(371,290)"/>
<path d="M0 0 C0.66 0 1.32 0 2 0 C1.35215814 5.94650633 0.28016565 11.67387483 -1.0625 17.5 C-1.24876953 18.32242187 -1.43503906 19.14484375 -1.62695312 19.9921875 C-2.08120885 21.9955717 -2.54011599 23.9979003 -3 26 C-3.33 26 -3.66 26 -4 26 C-4.78982493 16.8731341 -2.4179505 8.70030405 0 0 Z " fill="#1E2021" transform="translate(295,428)"/>
<path d="M0 0 C-0.33 0.66 -0.66 1.32 -1 2 C-9.55852485 3.52830801 -18.33647219 3.08951981 -27 3 C-27 2.67 -27 2.34 -27 2 C-17.95960217 0.72958023 -9.15564771 -0.34915606 0 0 Z " fill="#1D2021" transform="translate(689,812)"/>
<path d="M0 0 C3.81109886 0.59989519 6.03607619 2.34633008 9 4.75 C10.2684375 5.76320313 10.2684375 5.76320313 11.5625 6.796875 C14.05881387 9.05315869 16.12366976 11.20354628 18 14 C17.67 14.99 17.34 15.98 17 17 C15.8553125 15.5459375 15.8553125 15.5459375 14.6875 14.0625 C11.00372543 9.7218596 6.65647354 6.32975918 2.1953125 2.8203125 C1.47085938 2.21960938 0.74640625 1.61890625 0 1 C0 0.67 0 0.34 0 0 Z " fill="#1E2122" transform="translate(761,651)"/>
<path d="M0 0 C1.60488281 0.00676758 1.60488281 0.00676758 3.2421875 0.01367188 C5.86984986 0.02540251 8.49739538 0.04181772 11.125 0.0625 C11.125 0.3925 11.125 0.7225 11.125 1.0625 C10.31675781 1.12308594 9.50851562 1.18367188 8.67578125 1.24609375 C7.07283203 1.37177734 7.07283203 1.37177734 5.4375 1.5 C4.38175781 1.58121094 3.32601562 1.66242188 2.23828125 1.74609375 C-0.79106238 1.99119526 -0.79106238 1.99119526 -3.375 2.625 C-6.43007741 3.15963855 -9.10548013 2.92981515 -12.1875 2.625 C-13.25613281 2.52316406 -14.32476562 2.42132813 -15.42578125 2.31640625 C-16.23402344 2.23261719 -17.04226563 2.14882813 -17.875 2.0625 C-17.875 1.7325 -17.875 1.4025 -17.875 1.0625 C-11.93872979 -0.24183619 -6.04167748 -0.04836318 0 0 Z " fill="#111315" transform="translate(509.875,392.9375)"/>
<path d="M0 0 C8.50262969 -0.36011137 16.61090382 0.7472283 25 2 C25 2.33 25 2.66 25 3 C6.87029144 3.19801866 6.87029144 3.19801866 1 2 C0.67 1.34 0.34 0.68 0 0 Z " fill="#1E2222" transform="translate(331,812)"/>
<path d="M0 0 C5.3503559 0.57021934 10.67787852 1.20734361 16 2 C16.33 3.65 16.66 5.3 17 7 C8.585 4.03 8.585 4.03 0 1 C0 0.67 0 0.34 0 0 Z " fill="#272B2D" transform="translate(531,198)"/>
<path d="M0 0 C2 2 2 2 2 4.5625 C0.60393178 9.3614845 -2.08345914 12.98641166 -5 17 C-5.99 16.67 -6.98 16.34 -8 16 C-6.8553125 14.824375 -6.8553125 14.824375 -5.6875 13.625 C-2.2953093 9.61604735 -1.22013702 5.01942546 0 0 Z " fill="#1E2122" transform="translate(808,768)"/>
<path d="M0 0 C1.04940487 3.14821462 0.98606526 3.9349491 0.22265625 7.01171875 C0.03896484 7.76904297 -0.14472656 8.52636719 -0.33398438 9.30664062 C-0.53314453 10.09232422 -0.73230469 10.87800781 -0.9375 11.6875 C-1.13279297 12.48478516 -1.32808594 13.28207031 -1.52929688 14.10351562 C-2.01228382 16.07080389 -2.5051963 18.03565054 -3 20 C-3.33 20 -3.66 20 -4 20 C-4.33358143 13.10598384 -3.47557267 7.46470791 -1 1 C-0.67 0.67 -0.34 0.34 0 0 Z " fill="#1B1E20" transform="translate(223,711)"/>
<path d="M0 0 C0 0.33 0 0.66 0 1 C-7.47093223 1.29883729 -14.63044989 0.15925507 -22 -1 C-22 -1.33 -22 -1.66 -22 -2 C-13.94085318 -3.29382821 -7.71477583 -2.64122886 0 0 Z " fill="#171819" transform="translate(545,348)"/>
<path d="M0 0 C3.72732134 4.53760859 4.13153833 7.95078013 4.0625 13.75 C4.05347656 14.73484375 4.04445313 15.7196875 4.03515625 16.734375 C4.02355469 17.48203125 4.01195312 18.2296875 4 19 C3.67 19 3.34 19 3 19 C2.49356447 16.77228658 1.9951038 14.54275924 1.5 12.3125 C1.2215625 11.07113281 0.943125 9.82976563 0.65625 8.55078125 C0.10645874 5.57601782 -0.13795705 3.00631398 0 0 Z " fill="#1A1E1F" transform="translate(803,723)"/>
<path d="M0 0 C4.09480199 3.74381897 7.7448683 7.8668907 10 13 C9.67 13.99 9.34 14.98 9 16 C7.49445366 13.71180854 5.99542957 11.41978831 4.5 9.125 C4.07074219 8.47402344 3.64148438 7.82304687 3.19921875 7.15234375 C0 2.2265625 0 2.2265625 0 0 Z " fill="#181B1B" transform="translate(678,325)"/>
<path d="M0 0 C0.99 0.33 1.98 0.66 3 1 C-2.445 7.435 -2.445 7.435 -8 14 C-8.33 13.01 -8.66 12.02 -9 11 C-7.12890625 8.30078125 -7.12890625 8.30078125 -4.5625 5.3125 C-3.71816406 4.31863281 -2.87382812 3.32476562 -2.00390625 2.30078125 C-1.01197266 1.16189453 -1.01197266 1.16189453 0 0 Z " fill="#1A1D1E" transform="translate(383,275)"/>
<path d="M0 0 C-0.33 0.99 -0.66 1.98 -1 3 C-6.28 3 -11.56 3 -17 3 C-11.38712633 0.19356317 -6.21558361 -0.1515996 0 0 Z " fill="#1D2022" transform="translate(737,805)"/>
<path d="M0 0 C3.92982637 2.61988425 4.01686331 4.46244606 5 9 C5.125 12.4375 5.125 12.4375 5 15 C2.68994131 12.68994131 2.27825897 11.16916343 1.375 8.0625 C1.11460937 7.18722656 0.85421875 6.31195312 0.5859375 5.41015625 C0 3 0 3 0 0 Z " fill="#1E2223" transform="translate(797,702)"/>
<path d="M0 0 C0.66 0.99 1.32 1.98 2 3 C1.15528873 5.53708735 0.25737906 7.7854108 -0.875 10.1875 C-1.17019531 10.84169922 -1.46539062 11.49589844 -1.76953125 12.16992188 C-2.50070435 13.78557856 -3.24877569 15.39356835 -4 17 C-5.6852084 12.92320841 -4.16939007 10.16924407 -2.5625 6.25 C-2.08941406 5.07953125 -1.61632812 3.9090625 -1.12890625 2.703125 C-0.75636719 1.81109375 -0.38382812 0.9190625 0 0 Z " fill="#1F2324" transform="translate(308,391)"/>
<path d="M0 0 C0.99 0.33 1.98 0.66 3 1 C2.3503125 1.5878125 2.3503125 1.5878125 1.6875 2.1875 C-0.12177457 3.99396625 -0.12177457 3.99396625 -1.4375 6.5 C-3.03796923 9.06075077 -4.49756426 10.36047314 -7 12 C-6.690625 11.4225 -6.38125 10.845 -6.0625 10.25 C-4.93161029 8.1009371 -4.93161029 8.1009371 -4.625 6 C-3.76744189 3.25581405 -2.10137729 1.8980182 0 0 Z " fill="#313639" transform="translate(389,269)"/>
<path d="M0 0 C-2.11997834 1.19733988 -4.24513676 2.38298713 -6.375 3.5625 C-6.97828125 3.90474609 -7.5815625 4.24699219 -8.203125 4.59960938 C-9.76978241 5.46127095 -11.38290862 6.23718183 -13 7 C-13.66 6.67 -14.32 6.34 -15 6 C-12.87748883 3.69895986 -10.84451444 2.18105541 -8.0625 0.75 C-7.39347656 0.39421875 -6.72445313 0.0384375 -6.03515625 -0.328125 C-3.61730731 -1.12634 -2.36988243 -0.82707306 0 0 Z " fill="#212424" transform="translate(477,204)"/>
<path d="M0 0 C0.65234375 1.734375 0.65234375 1.734375 1 4 C0.00390625 6.140625 0.00390625 6.140625 -1.4375 8.25 C-1.91058594 8.95640625 -2.38367188 9.6628125 -2.87109375 10.390625 C-3.24363281 10.92171875 -3.61617188 11.4528125 -4 12 C-4.99 11.67 -5.98 11.34 -7 11 C-5.99088542 9.2421875 -4.98177083 7.484375 -3.97265625 5.7265625 C-3.28280949 4.50201525 -2.62855462 3.25710923 -2 2 C-1.34 1.34 -0.68 0.68 0 0 Z " fill="#262A2B" transform="translate(339,333)"/>
<path d="M0 0 C0.66 0 1.32 0 2 0 C3.7265625 2.1875 3.7265625 2.1875 5.625 5 C6.25664062 5.928125 6.88828125 6.85625 7.5390625 7.8125 C8.26222656 8.8953125 8.26222656 8.8953125 9 10 C8.01 10 7.02 10 6 10 C4.39453125 8.3203125 4.39453125 8.3203125 2.8125 6.125 C2.01779297 5.04605469 2.01779297 5.04605469 1.20703125 3.9453125 C0 2 0 2 0 0 Z " fill="#1C1E1F" transform="translate(327,600)"/>
<path d="M0 0 C-1.62249941 0.83819158 -3.24808497 1.6704116 -4.875 2.5 C-6.23238281 3.19609375 -6.23238281 3.19609375 -7.6171875 3.90625 C-10 5 -10 5 -12 5 C-12 4.34 -12 3.68 -12 3 C-10.75823305 2.29773859 -9.50614401 1.61370891 -8.25 0.9375 C-7.20585937 0.36322266 -7.20585937 0.36322266 -6.140625 -0.22265625 C-3.63859372 -1.1312406 -2.4667645 -0.88336837 0 0 Z " fill="#212425" transform="translate(329,615)"/>
<path d="M0 0 C0 0.66 0 1.32 0 2 C-2.31 3.32 -4.62 4.64 -7 6 C-6.67 4.68 -6.34 3.36 -6 2 C-6.66 1.67 -7.32 1.34 -8 1 C-5.29120665 -0.35439668 -2.99066732 -0.06501451 0 0 Z " fill="#E2E3E3" transform="translate(608,628)"/>
<path d="M0 0 C2.12038635 2.61514317 4.13091744 5.19637616 6 8 C5.625 10.1875 5.625 10.1875 5 12 C4.15556432 10.75747321 3.3248542 9.5056114 2.5 8.25 C1.80390625 7.20585937 1.80390625 7.20585937 1.09375 6.140625 C0 4 0 4 0 0 Z " fill="#1E2222" transform="translate(688,339)"/>
<path d="M0 0 C0.66 0.66 1.32 1.32 2 2 C-0.97 5.3 -3.94 8.6 -7 12 C-7 8.19654123 -5.86213669 7.22298985 -3.5 4.3125 C-2.8503125 3.50425781 -2.200625 2.69601562 -1.53125 1.86328125 C-1.0259375 1.24839844 -0.520625 0.63351562 0 0 Z " fill="#3F474C" transform="translate(365,300)"/>
<path d="M0 0 C0.66 0.33 1.32 0.66 2 1 C2 1.66 2 2.32 2 3 C0.71349294 3.69710731 -0.57940665 4.38242876 -1.875 5.0625 C-2.95394531 5.63677734 -2.95394531 5.63677734 -4.0546875 6.22265625 C-4.69664062 6.47917969 -5.33859375 6.73570312 -6 7 C-6.66 6.67 -7.32 6.34 -8 6 C-5.36 4.02 -2.72 2.04 0 0 Z " fill="#E8E9E7" transform="translate(593,635)"/>
<path d="M0 0 C0.99 0 1.98 0 3 0 C5.125 4.625 5.125 4.625 4 8 C3.34 8 2.68 8 2 8 C1.34 5.36 0.68 2.72 0 0 Z " fill="#E4E4E4" transform="translate(355,548)"/>
<path d="M0 0 C0.99 0 1.98 0 3 0 C4.125 3.3125 4.125 3.3125 5 7 C4.01 8.485 4.01 8.485 3 10 C2.01 6.7 1.02 3.4 0 0 Z " fill="#E4E4E4" transform="translate(378,562)"/>
<path d="M0 0 C3 1.1875 3 1.1875 5 3.1875 C-0.41538462 3.55673077 -0.41538462 3.55673077 -3.375 1.6875 C-3.91125 1.1925 -4.4475 0.6975 -5 0.1875 C-3 -0.8125 -3 -0.8125 0 0 Z " fill="#E5E5E3" transform="translate(593,364.8125)"/>
<path d="M0 0 C4.83256305 0.41421969 6.82679218 2.46413986 10 6 C6.62972148 6 5.93297304 5.50175992 3.3125 3.5625 C2.68988281 3.11003906 2.06726563 2.65757812 1.42578125 2.19140625 C0.95527344 1.79824219 0.48476563 1.40507812 0 1 C0 0.67 0 0.34 0 0 Z " fill="#1D2021" transform="translate(574,219)"/>
<path d="M0 0 C0.66 0 1.32 0 2 0 C1.67 3.63 1.34 7.26 1 11 C0.67 11 0.34 11 0 11 C-0.19406478 9.35492782 -0.38007935 7.70890406 -0.5625 6.0625 C-0.66691406 5.14597656 -0.77132813 4.22945313 -0.87890625 3.28515625 C-0.91886719 2.53105469 -0.95882813 1.77695312 -1 1 C-0.67 0.67 -0.34 0.34 0 0 Z " fill="#E3E4E4" transform="translate(351,475)"/>
<path d="M0 0 C0.99 0.33 1.98 0.66 3 1 C1.02 3.31 -0.96 5.62 -3 8 C-3.66 7.34 -4.32 6.68 -5 6 C-3.35 4.02 -1.7 2.04 0 0 Z " fill="#F2F2F3" transform="translate(387,398)"/>
<path d="M0 0 C6.625 0.75 6.625 0.75 10 3 C3.375 3.125 3.375 3.125 0 2 C0 1.34 0 0.68 0 0 Z " fill="#1B1F21" transform="translate(252,797)"/>
<path d="M0 0 C0 0.66 0 1.32 0 2 C-2.3125 3.6875 -2.3125 3.6875 -5 5 C-5.99 4.67 -6.98 4.34 -8 4 C-8 3.34 -8 2.68 -8 2 C-2.25 0 -2.25 0 0 0 Z " fill="#E2E2E1" transform="translate(457,354)"/>
<path d="M0 0 C0.66 0.33 1.32 0.66 2 1 C0.68 2.65 -0.64 4.3 -2 6 C-3.32 5.67 -4.64 5.34 -6 5 C-4.02 3.35 -2.04 1.7 0 0 Z " fill="#2B2F30" transform="translate(437,225)"/>
<path d="M0 0 C4.21912747 0.4794463 6.79663178 1.16625119 10 4 C3.47692308 3.38461538 3.47692308 3.38461538 1.0625 1.4375 C0.711875 0.963125 0.36125 0.48875 0 0 Z " fill="#2A2E30" transform="translate(550,205)"/>
<path d="M0 0 C0.33 1.32 0.66 2.64 1 4 C-1.64 3.01 -4.28 2.02 -7 1 C-3.375 -1.125 -3.375 -1.125 0 0 Z " fill="#222527" transform="translate(547,201)"/>
<path d="M0 0 C5.75 0.875 5.75 0.875 8 2 C8 2.66 8 3.32 8 4 C4.31245243 3.50168276 2.39509338 2.89932357 0 0 Z " fill="#1F2224" transform="translate(717,625)"/>
<path d="M0 0 C0.66 0.66 1.32 1.32 2 2 C1.96712417 4.72869407 1.43602229 7.2966618 1 10 C-0.80411967 7.24075815 -1.0127245 6.11027897 -0.625 2.75 C-0.41875 1.8425 -0.2125 0.935 0 0 Z " fill="#E0DFE0" transform="translate(646,549)"/>
<path d="M0 0 C2.64 0 5.28 0 8 0 C8 0.33 8 0.66 8 1 C5.36 1 2.72 1 0 1 C0 0.67 0 0.34 0 0 Z " fill="#4E5152" transform="translate(432,823)"/>
<path d="M0 0 C2.31 0 4.62 0 7 0 C7 0.33 7 0.66 7 1 C4.69 1 2.38 1 0 1 C0 0.67 0 0.34 0 0 Z " fill="#4D5154" transform="translate(579,823)"/>
<path d="M0 0 C1.65 0 3.3 0 5 0 C4.67 0.66 4.34 1.32 4 2 C2.68 1.34 1.36 0.68 0 0 Z " fill="#4F5253" transform="translate(271,805)"/>
<path d="M0 0 C0.66 0.33 1.32 0.66 2 1 C2 1.66 2 2.32 2 3 C1.01 2.67 0.02 2.34 -1 2 C-0.67 1.34 -0.34 0.68 0 0 Z " fill="#4E5153" transform="translate(217,781)"/>
<path d="M0 0 C0.66 1.32 1.32 2.64 2 4 C1.01 3.01 0.02 2.02 -1 1 C-0.67 0.67 -0.34 0.34 0 0 Z " fill="#4F5354" transform="translate(307,572)"/>
<path d="M0 0 C0.66 0.33 1.32 0.66 2 1 C2 1.66 2 2.32 2 3 C1.01 2.67 0.02 2.34 -1 2 C-0.67 1.34 -0.34 0.68 0 0 Z " fill="#4E5255" transform="translate(305,569)"/>
<path d="M0 0 C0.66 1.32 1.32 2.64 2 4 C1.34 4 0.68 4 0 4 C0 2.68 0 1.36 0 0 Z " fill="#4F5253" transform="translate(298,553)"/>
<path d="M0 0 C0.99 0.33 1.98 0.66 3 1 C1.68 1.33 0.36 1.66 -1 2 C-0.67 1.34 -0.34 0.68 0 0 Z " fill="#4E5052" transform="translate(278,806)"/>
<path d="M0 0 C0.33 1.32 0.66 2.64 1 4 C0.34 3.34 -0.32 2.68 -1 2 C-0.67 1.34 -0.34 0.68 0 0 Z " fill="#4F5355" transform="translate(217,722)"/>
<path d="M0 0 C4 1 4 1 4 1 Z " fill="#4D4F53" transform="translate(574,823)"/>
<path d="M0 0 C4 1 4 1 4 1 Z " fill="#515456" transform="translate(414,822)"/>
<path d="M0 0 C0.99 0.33 1.98 0.66 3 1 C2.01 1 1.02 1 0 1 C0 0.67 0 0.34 0 0 Z " fill="#4F5253" transform="translate(227,790)"/>
<path d="M0 0 C1 4 1 4 1 4 Z " fill="#4E5052" transform="translate(212,769)"/>
<path d="M0 0 C1 4 1 4 1 4 Z " fill="#4F5354" transform="translate(212,753)"/>
<path d="M0 0 C0.66 0 1.32 0 2 0 C1.67 0.99 1.34 1.98 1 3 C0.67 2.01 0.34 1.02 0 0 Z " fill="#505355" transform="translate(289,528)"/>
<path d="M0 0 C1 4 1 4 1 4 Z " fill="#555859" transform="translate(289,523)"/>
<path d="M0 0 C0.33 0.99 0.66 1.98 1 3 C0.34 2.67 -0.32 2.34 -1 2 C-0.67 1.34 -0.34 0.68 0 0 Z " fill="#515454" transform="translate(285,492)"/>
<path d="M0 0 C0 3 0 3 0 3 Z " fill="#505556" transform="translate(305,394)"/>
<path d="M0 0 C0.99 0.33 1.98 0.66 3 1 C2.01 1 1.02 1 0 1 C0 0.67 0 0.34 0 0 Z " fill="#4E5253" transform="translate(660,297)"/>
<path d="M0 0 C3 1 3 1 3 1 Z " fill="#505355" transform="translate(384,820)"/>
<path d="M0 0 C3 1 3 1 3 1 Z " fill="#4E5153" transform="translate(640,819)"/>
<path d="M0 0 C3 1 3 1 3 1 Z " fill="#4D5051" transform="translate(376,819)"/>
<path d="M0 0 C3 1 3 1 3 1 Z " fill="#4D5053" transform="translate(680,815)"/>
<path d="M0 0 C3 1 3 1 3 1 Z " fill="#515556" transform="translate(335,815)"/>
<path d="M0 0 C3 1 3 1 3 1 Z " fill="#4E5353" transform="translate(691,814)"/>
<path d="M0 0 C3 1 3 1 3 1 Z " fill="#4E5254" transform="translate(312,812)"/>
<path d="M0 0 C3 1 3 1 3 1 Z " fill="#4D5152" transform="translate(264,803)"/>
<path d="M0 0 C3 1 3 1 3 1 Z " fill="#4F5353" transform="translate(773,799)"/>
<path d="M0 0 C0.66 0 1.32 0 2 0 C1.67 0.66 1.34 1.32 1 2 C0.67 1.34 0.34 0.68 0 0 Z " fill="#4E5253" transform="translate(790,680)"/>
<path d="" fill="#515456" transform="translate(0,0)"/>
<path d="" fill="#4E5152" transform="translate(0,0)"/>
<path d="" fill="#515455" transform="translate(0,0)"/>
<path d="M0 0 C0.99 0.495 0.99 0.495 2 1 C1.01 1.495 1.01 1.495 0 2 C0 1.34 0 0.68 0 0 Z " fill="#4E5355" transform="translate(407,248)"/>
<path d="M0 0 C0.33 0.66 0.66 1.32 1 2 C0.34 1.67 -0.32 1.34 -1 1 C-0.67 0.67 -0.34 0.34 0 0 Z " fill="#505352" transform="translate(504,192)"/>
<path d="" fill="#4F5354" transform="translate(0,0)"/>
<path d="M0 0 C2 1 2 1 2 1 Z " fill="#4C5153" transform="translate(401,821)"/>
<path d="M0 0 C2 1 2 1 2 1 Z " fill="#4E5353" transform="translate(629,820)"/>
<path d="M0 0 C2 1 2 1 2 1 Z " fill="#505356" transform="translate(684,815)"/>
<path d="M0 0 C2 1 2 1 2 1 Z " fill="#4F5354" transform="translate(327,814)"/>
<path d="M0 0 C2 1 2 1 2 1 Z " fill="#4F5354" transform="translate(698,813)"/>
<path d="M0 0 C2 1 2 1 2 1 Z " fill="#4D4F52" transform="translate(322,813)"/>
<path d="M0 0 C2 1 2 1 2 1 Z " fill="#4F5354" transform="translate(305,811)"/>
<path d="M0 0 C2 1 2 1 2 1 Z " fill="#4E5453" transform="translate(758,803)"/>
<path d="M0 0 C2 1 2 1 2 1 Z " fill="#4E5354" transform="translate(224,791)"/>
<path d="" fill="#525657" transform="translate(0,0)"/>
<path d="" fill="#4F5354" transform="translate(0,0)"/>
<path d="" fill="#515656" transform="translate(0,0)"/>
<path d="" fill="#505355" transform="translate(0,0)"/>
<path d="" fill="#505355" transform="translate(0,0)"/>
<path d="M0 0 C2 1 2 1 2 1 Z " fill="#505556" transform="translate(225,688)"/>
<path d="" fill="#535656" transform="translate(0,0)"/>
<path d="" fill="#525555" transform="translate(0,0)"/>
<path d="" fill="#515556" transform="translate(0,0)"/>
<path d="M0 0 C2 1 2 1 2 1 Z " fill="#4E5154" transform="translate(243,664)"/>
<path d="M0 0 C2 1 2 1 2 1 Z " fill="#505255" transform="translate(250,656)"/>
<path d="M0 0 C2 1 2 1 2 1 Z " fill="#525557" transform="translate(256,648)"/>
<path d="M0 0 C2 1 2 1 2 1 Z " fill="#4F5556" transform="translate(270,640)"/>
<path d="M0 0 C2 1 2 1 2 1 Z " fill="#4D5253" transform="translate(285,632)"/>
<path d="M0 0 C2 1 2 1 2 1 Z " fill="#4F5355" transform="translate(296,626)"/>
<path d="M0 0 C2 1 2 1 2 1 Z " fill="#4E5154" transform="translate(300,624)"/>
<path d="M0 0 C2 1 2 1 2 1 Z " fill="#505354" transform="translate(327,611)"/>
<path d="" fill="#4D5153" transform="translate(0,0)"/>
<path d="M0 0 C2 1 2 1 2 1 Z " fill="#4F5254" transform="translate(304,575)"/>
<path d="" fill="#4E5356" transform="translate(0,0)"/>
<path d="" fill="#525455" transform="translate(0,0)"/>
<path d="" fill="#4F5354" transform="translate(0,0)"/>
<path d="" fill="#4E5251" transform="translate(0,0)"/>
<path d="" fill="#535657" transform="translate(0,0)"/>
<path d="" fill="#515455" transform="translate(0,0)"/>
<path d="" fill="#515356" transform="translate(0,0)"/>
<path d="M0 0 C2 1 2 1 2 1 Z " fill="#505355" transform="translate(304,385)"/>
<path d="" fill="#535658" transform="translate(0,0)"/>
<path d="" fill="#505455" transform="translate(0,0)"/>
<path d="" fill="#505455" transform="translate(0,0)"/>
<path d="M0 0 C2 1 2 1 2 1 Z " fill="#505354" transform="translate(313,368)"/>
<path d="" fill="#4F5253" transform="translate(0,0)"/>
<path d="" fill="#505556" transform="translate(0,0)"/>
<path d="M0 0 C2 1 2 1 2 1 Z " fill="#4F5152" transform="translate(666,305)"/>
<path d="" fill="#4F5354" transform="translate(0,0)"/>
<path d="" fill="#505456" transform="translate(0,0)"/>
<path d="M0 0 C2 1 2 1 2 1 Z " fill="#4D5152" transform="translate(654,288)"/>
<path d="M0 0 C2 1 2 1 2 1 Z " fill="#4F5353" transform="translate(403,249)"/>
<path d="M0 0 C2 1 2 1 2 1 Z " fill="#4D4E4F" transform="translate(606,240)"/>
<path d="M0 0 C2 1 2 1 2 1 Z " fill="#4D5050" transform="translate(574,216)"/>
<path d="M0 0 C2 1 2 1 2 1 Z " fill="#525556" transform="translate(447,216)"/>
<path d="" fill="#545555" transform="translate(0,0)"/>
<path d="" fill="#494A4A" transform="translate(0,0)"/>
<path d="" fill="#4F5055" transform="translate(0,0)"/>
<path d="" fill="#4E5152" transform="translate(0,0)"/>
<path d="" fill="#4F5454" transform="translate(0,0)"/>
<path d="" fill="#4F5355" transform="translate(0,0)"/>
<path d="" fill="#4E5152" transform="translate(0,0)"/>
<path d="" fill="#525555" transform="translate(0,0)"/>
<path d="" fill="#525355" transform="translate(0,0)"/>
<path d="" fill="#505254" transform="translate(0,0)"/>
<path d="" fill="#4E5153" transform="translate(0,0)"/>
<path d="" fill="#4F5253" transform="translate(0,0)"/>
<path d="" fill="#4F5354" transform="translate(0,0)"/>
<path d="" fill="#4F5255" transform="translate(0,0)"/>
<path d="" fill="#4E5154" transform="translate(0,0)"/>
<path d="" fill="#4E5253" transform="translate(0,0)"/>
<path d="" fill="#4F5155" transform="translate(0,0)"/>
<path d="" fill="#525556" transform="translate(0,0)"/>
<path d="" fill="#4C5150" transform="translate(0,0)"/>
<path d="" fill="#4E5254" transform="translate(0,0)"/>
<path d="" fill="#4F5154" transform="translate(0,0)"/>
<path d="" fill="#525456" transform="translate(0,0)"/>
<path d="" fill="#4B5050" transform="translate(0,0)"/>
<path d="" fill="#4F5255" transform="translate(0,0)"/>
<path d="" fill="#505355" transform="translate(0,0)"/>
<path d="" fill="#4D5153" transform="translate(0,0)"/>
<path d="" fill="#515352" transform="translate(0,0)"/>
<path d="" fill="#525758" transform="translate(0,0)"/>
<path d="" fill="#525356" transform="translate(0,0)"/>
<path d="" fill="#505457" transform="translate(0,0)"/>
<path d="" fill="#4E5453" transform="translate(0,0)"/>
<path d="" fill="#4F5354" transform="translate(0,0)"/>
<path d="" fill="#515256" transform="translate(0,0)"/>
<path d="" fill="#4F5254" transform="translate(0,0)"/>
<path d="" fill="#4F5354" transform="translate(0,0)"/>
<path d="" fill="#4F5153" transform="translate(0,0)"/>
<path d="" fill="#4D5354" transform="translate(0,0)"/>
<path d="" fill="#4D5253" transform="translate(0,0)"/>
<path d="" fill="#505355" transform="translate(0,0)"/>
<path d="" fill="#505254" transform="translate(0,0)"/>
<path d="" fill="#4F5356" transform="translate(0,0)"/>
<path d="" fill="#515257" transform="translate(0,0)"/>
<path d="" fill="#515153" transform="translate(0,0)"/>
<path d="" fill="#515256" transform="translate(0,0)"/>
<path d="" fill="#505355" transform="translate(0,0)"/>
<path d="" fill="#4D4E4F" transform="translate(0,0)"/>
<path d="" fill="#525354" transform="translate(0,0)"/>
<path d="" fill="#545356" transform="translate(0,0)"/>
<path d="" fill="#505553" transform="translate(0,0)"/>
<path d="" fill="#4F5153" transform="translate(0,0)"/>
<path d="" fill="#4D5051" transform="translate(0,0)"/>
<path d="" fill="#535356" transform="translate(0,0)"/>
<path d="" fill="#515354" transform="translate(0,0)"/>
<path d="" fill="#535757" transform="translate(0,0)"/>
<path d="" fill="#525657" transform="translate(0,0)"/>
<path d="" fill="#535756" transform="translate(0,0)"/>
<path d="" fill="#515456" transform="translate(0,0)"/>
<path d="" fill="#505353" transform="translate(0,0)"/>
<path d="" fill="#525658" transform="translate(0,0)"/>
<path d="" fill="#505353" transform="translate(0,0)"/>
<path d="" fill="#535554" transform="translate(0,0)"/>
<path d="" fill="#505557" transform="translate(0,0)"/>
<path d="" fill="#515455" transform="translate(0,0)"/>
<path d="" fill="#525557" transform="translate(0,0)"/>
<path d="" fill="#525558" transform="translate(0,0)"/>
<path d="" fill="#505556" transform="translate(0,0)"/>
<path d="" fill="#525356" transform="translate(0,0)"/>
<path d="" fill="#505456" transform="translate(0,0)"/>
<path d="" fill="#525659" transform="translate(0,0)"/>
<path d="" fill="#505357" transform="translate(0,0)"/>
<path d="" fill="#505555" transform="translate(0,0)"/>
<path d="" fill="#4F5254" transform="translate(0,0)"/>
<path d="" fill="#4E5254" transform="translate(0,0)"/>
<path d="" fill="#4F5153" transform="translate(0,0)"/>
<path d="" fill="#515553" transform="translate(0,0)"/>
<path d="" fill="#515355" transform="translate(0,0)"/>
<path d="" fill="#505556" transform="translate(0,0)"/>
<path d="" fill="#505254" transform="translate(0,0)"/>
<path d="" fill="#4F5556" transform="translate(0,0)"/>
<path d="" fill="#505558" transform="translate(0,0)"/>
<path d="" fill="#525357" transform="translate(0,0)"/>
<path d="" fill="#4E5252" transform="translate(0,0)"/>
<path d="" fill="#515556" transform="translate(0,0)"/>
<path d="" fill="#4D5053" transform="translate(0,0)"/>
<path d="" fill="#505556" transform="translate(0,0)"/>
<path d="" fill="#505458" transform="translate(0,0)"/>
<path d="" fill="#4F5455" transform="translate(0,0)"/>
<path d="" fill="#505555" transform="translate(0,0)"/>
<path d="" fill="#4D5354" transform="translate(0,0)"/>
<path d="" fill="#505453" transform="translate(0,0)"/>
<path d="" fill="#505255" transform="translate(0,0)"/>
<path d="" fill="#4E5553" transform="translate(0,0)"/>
<path d="" fill="#505153" transform="translate(0,0)"/>
<path d="" fill="#505552" transform="translate(0,0)"/>
<path d="" fill="#4E5253" transform="translate(0,0)"/>
<path d="" fill="#4C5152" transform="translate(0,0)"/>
<path d="" fill="#505356" transform="translate(0,0)"/>
<path d="" fill="#4D5155" transform="translate(0,0)"/>
<path d="" fill="#505554" transform="translate(0,0)"/>
<path d="" fill="#4F5356" transform="translate(0,0)"/>
<path d="" fill="#4F5356" transform="translate(0,0)"/>
<path d="" fill="#4F5154" transform="translate(0,0)"/>
<path d="" fill="#515556" transform="translate(0,0)"/>
<path d="" fill="#505455" transform="translate(0,0)"/>
<path d="" fill="#4C5053" transform="translate(0,0)"/>
<path d="" fill="#505453" transform="translate(0,0)"/>
<path d="" fill="#4E5355" transform="translate(0,0)"/>
<path d="" fill="#4D5152" transform="translate(0,0)"/>
<path d="" fill="#4C5151" transform="translate(0,0)"/>
<path d="" fill="#525558" transform="translate(0,0)"/>
<path d="" fill="#4D5052" transform="translate(0,0)"/>
<path d="" fill="#4C4F54" transform="translate(0,0)"/>
<path d="" fill="#505658" transform="translate(0,0)"/>
<path d="" fill="#505455" transform="translate(0,0)"/>
<path d="" fill="#515455" transform="translate(0,0)"/>
<path d="" fill="#4F5355" transform="translate(0,0)"/>
<path d="" fill="#515556" transform="translate(0,0)"/>
<path d="" fill="#535656" transform="translate(0,0)"/>
<path d="" fill="#505252" transform="translate(0,0)"/>
<path d="" fill="#4E5356" transform="translate(0,0)"/>
<path d="" fill="#505455" transform="translate(0,0)"/>
<path d="" fill="#505354" transform="translate(0,0)"/>
<path d="" fill="#525656" transform="translate(0,0)"/>
<path d="" fill="#525355" transform="translate(0,0)"/>
<path d="" fill="#555758" transform="translate(0,0)"/>
<path d="" fill="#4D5151" transform="translate(0,0)"/>
<path d="" fill="#525659" transform="translate(0,0)"/>
<path d="" fill="#505355" transform="translate(0,0)"/>
<path d="" fill="#515658" transform="translate(0,0)"/>
<path d="" fill="#535555" transform="translate(0,0)"/>
<path d="" fill="#525658" transform="translate(0,0)"/>
<path d="" fill="#545658" transform="translate(0,0)"/>
<path d="" fill="#515556" transform="translate(0,0)"/>
<path d="" fill="#555A5B" transform="translate(0,0)"/>
<path d="" fill="#525555" transform="translate(0,0)"/>
<path d="" fill="#525556" transform="translate(0,0)"/>
<path d="" fill="#525656" transform="translate(0,0)"/>
<path d="" fill="#4C5252" transform="translate(0,0)"/>
<path d="" fill="#505454" transform="translate(0,0)"/>
<path d="" fill="#505253" transform="translate(0,0)"/>
<path d="" fill="#545757" transform="translate(0,0)"/>
<path d="" fill="#4F5253" transform="translate(0,0)"/>
<path d="" fill="#505554" transform="translate(0,0)"/>
<path d="" fill="#505253" transform="translate(0,0)"/>
<path d="" fill="#4F5355" transform="translate(0,0)"/>
<path d="" fill="#505354" transform="translate(0,0)"/>
<path d="" fill="#525353" transform="translate(0,0)"/>
<path d="" fill="#4F5353" transform="translate(0,0)"/>
<path d="" fill="#525255" transform="translate(0,0)"/>
<path d="" fill="#4F5351" transform="translate(0,0)"/>
<path d="" fill="#505355" transform="translate(0,0)"/>
<path d="" fill="#4B5050" transform="translate(0,0)"/>
<path d="" fill="#4D5052" transform="translate(0,0)"/>
<path d="" fill="#4E5454" transform="translate(0,0)"/>
<path d="" fill="#4B4E4D" transform="translate(0,0)"/>
<path d="" fill="#4E5155" transform="translate(0,0)"/>
<path d="" fill="#515656" transform="translate(0,0)"/>
<path d="" fill="#525455" transform="translate(0,0)"/>
<path d="" fill="#4E5153" transform="translate(0,0)"/>
<path d="" fill="#4F5353" transform="translate(0,0)"/>
<path d="" fill="#4E5555" transform="translate(0,0)"/>
<path d="" fill="#4A504F" transform="translate(0,0)"/>
<path d="" fill="#4F5456" transform="translate(0,0)"/>
<path d="" fill="#515554" transform="translate(0,0)"/>
<path d="" fill="#4F5453" transform="translate(0,0)"/>
<path d="" fill="#4D5353" transform="translate(0,0)"/>
<path d="" fill="#4F5154" transform="translate(0,0)"/>
<path d="" fill="#505254" transform="translate(0,0)"/>
<path d="" fill="#4F5352" transform="translate(0,0)"/>
<path d="" fill="#4F5254" transform="translate(0,0)"/>
<path d="" fill="#505353" transform="translate(0,0)"/>
<path d="" fill="#4C5251" transform="translate(0,0)"/>
<path d="" fill="#4F5153" transform="translate(0,0)"/>
<path d="" fill="#535859" transform="translate(0,0)"/>
<path d="" fill="#4F5355" transform="translate(0,0)"/>
<path d="" fill="#515455" transform="translate(0,0)"/>
<path d="" fill="#515355" transform="translate(0,0)"/>
<path d="" fill="#505352" transform="translate(0,0)"/>
<path d="" fill="#4F5352" transform="translate(0,0)"/>
<path d="" fill="#505251" transform="translate(0,0)"/>
<path d="" fill="#4F5556" transform="translate(0,0)"/>
<path d="" fill="#505154" transform="translate(0,0)"/>
<path d="" fill="#4F5354" transform="translate(0,0)"/>
<path d="" fill="#525758" transform="translate(0,0)"/>
<path d="" fill="#4F5353" transform="translate(0,0)"/>
<path d="" fill="#4E5251" transform="translate(0,0)"/>
<path d="" fill="#4E5253" transform="translate(0,0)"/>
<path d="" fill="#4E5251" transform="translate(0,0)"/>
<path d="" fill="#4E5251" transform="translate(0,0)"/>
<path d="" fill="#4F5354" transform="translate(0,0)"/>
<path d="" fill="#4B4F4F" transform="translate(0,0)"/>
<path d="" fill="#515354" transform="translate(0,0)"/>
<path d="" fill="#515556" transform="translate(0,0)"/>
<path d="" fill="#515457" transform="translate(0,0)"/>
<path d="" fill="#505354" transform="translate(0,0)"/>
<path d="" fill="#4D5254" transform="translate(0,0)"/>
<path d="" fill="#525657" transform="translate(0,0)"/>
<path d="" fill="#4C4F52" transform="translate(0,0)"/>
<path d="" fill="#4E5053" transform="translate(0,0)"/>
<path d="" fill="#525455" transform="translate(0,0)"/>
<path d="" fill="#505454" transform="translate(0,0)"/>
<path d="" fill="#515455" transform="translate(0,0)"/>
<path d="" fill="#515555" transform="translate(0,0)"/>
<path d="" fill="#505355" transform="translate(0,0)"/>
<path d="" fill="#4F5355" transform="translate(0,0)"/>
<path d="" fill="#4D5250" transform="translate(0,0)"/>
<path d="" fill="#4F5353" transform="translate(0,0)"/>
<path d="" fill="#515455" transform="translate(0,0)"/>
<path d="" fill="#4F5555" transform="translate(0,0)"/>
<path d="" fill="#505253" transform="translate(0,0)"/>
<path d="" fill="#515656" transform="translate(0,0)"/>
<path d="" fill="#515455" transform="translate(0,0)"/>
<path d="" fill="#525655" transform="translate(0,0)"/>
<path d="" fill="#525555" transform="translate(0,0)"/>
<path d="" fill="#525554" transform="translate(0,0)"/>
<path d="" fill="#535655" transform="translate(0,0)"/>
<path d="" fill="#515456" transform="translate(0,0)"/>
</svg>
